<svg width="161" height="26" viewBox="0 0 161 26" fill="none" xmlns="http://www.w3.org/2000/svg">
<path d="M10.1751 25H0.511127V0.872H9.47113C11.6258 0.893333 13.3538 1.37333 14.6551 2.312C15.9778 3.25067 16.6391 4.872 16.6391 7.176C16.6391 8.264 16.4365 9.23467 16.0311 10.088C15.6471 10.9413 14.9645 11.6133 13.9831 12.104V12.136C15.7111 12.3707 16.9591 13.0427 17.7271 14.152C18.5165 15.24 18.9111 16.6267 18.9111 18.312C18.9111 20.8293 18.0045 22.5787 16.1911 23.56C14.3991 24.52 12.3938 25 10.1751 25ZM6.78313 15.016V20.2H7.58313C7.60446 20.2213 7.62579 20.232 7.64713 20.232C7.68979 20.232 7.73246 20.232 7.77513 20.232C8.03113 20.232 8.29779 20.232 8.57513 20.232C8.85246 20.232 9.12979 20.2213 9.40713 20.2C10.1965 20.136 10.9218 19.9333 11.5831 19.592C12.2445 19.2507 12.5751 18.6107 12.5751 17.672C12.5751 16.584 12.2125 15.88 11.4871 15.56C10.7618 15.24 9.97246 15.0693 9.11913 15.048C8.92713 15.048 8.72446 15.048 8.51113 15.048C8.31913 15.048 8.12713 15.048 7.93513 15.048C7.84979 15.048 7.76446 15.048 7.67913 15.048C7.59379 15.048 7.50846 15.048 7.42313 15.048L6.78313 15.016ZM6.78313 5.672V10.344H7.48713C7.50846 10.3653 7.52979 10.376 7.55113 10.376C7.59379 10.376 7.63646 10.376 7.67913 10.376C8.46846 10.3547 9.19379 10.2053 9.85513 9.928C10.5378 9.65067 10.8791 9.02133 10.8791 8.04C10.8791 7.05867 10.5591 6.42933 9.91913 6.152C9.27913 5.87466 8.58579 5.72533 7.83913 5.704C7.73246 5.704 7.62579 5.704 7.51913 5.704C7.43379 5.704 7.33779 5.704 7.23113 5.704L6.78313 5.672ZM29.0794 0.872V19.688H36.5994V25H22.8074V0.872H29.0794ZM51.4191 0.0719986C54.8965 0.0933317 57.9898 1.26667 60.6991 3.592C63.4085 5.896 64.7631 8.872 64.7631 12.52C64.7631 16.424 63.5045 19.6133 60.9871 22.088C58.4911 24.5627 55.3018 25.8 51.4191 25.8C47.5578 25.8 44.3685 24.5627 41.8511 22.088C39.3338 19.6133 38.0751 16.424 38.0751 12.52C38.0751 8.872 39.4298 5.896 42.1391 3.592C44.8485 1.26667 47.9418 0.103998 51.4191 0.103998V0.0719986ZM51.4191 6.152C49.5418 6.17333 47.9311 6.83467 46.5871 8.136C45.2645 9.416 44.6031 10.888 44.6031 12.552C44.6031 14.6213 45.2645 16.3387 46.5871 17.704C47.9311 19.0693 49.5418 19.752 51.4191 19.752C53.2965 19.752 54.8965 19.0693 56.2191 17.704C57.5631 16.3387 58.2351 14.6213 58.2351 12.552C58.2351 10.888 57.5631 9.416 56.2191 8.136C54.8965 6.83467 53.2965 6.184 51.4191 6.184V6.152ZM83.0901 20.808H74.4501L72.7861 25H66.1301L75.4101 0.872H82.2581L91.3461 25H84.6581L83.0901 20.808ZM81.3941 16.008L78.8341 8.328H78.7701L76.1781 16.008H81.3941ZM101.64 6.184V25H95.3679V6.184H90.1839V0.872H106.824V6.184H101.64ZM116.014 0.872V25H109.742V0.872H116.014ZM134.613 6.184H127.029V10.216H133.909V15.528H127.029V25H120.757V0.872H134.613V6.184ZM144.981 13.416L136.085 0.872H143.605L148.117 7.432L152.629 0.872H160.149L151.253 13.416V25H144.981V13.416Z" fill="black"/>
</svg>
